<?xml version="1.0" standalone="no"?>
<!DOCTYPE svg PUBLIC "-//W3C//DTD SVG 20010904//EN"
 "http://www.w3.org/TR/2001/REC-SVG-20010904/DTD/svg10.dtd">
<svg version="1.0" xmlns="http://www.w3.org/2000/svg"
 width="260.000000pt" height="260.000000pt" viewBox="0 0 260.000000 260.000000"
 preserveAspectRatio="xMidYMid meet">
<metadata>
Created by potrace 1.11, written by Peter Selinger 2001-2013
</metadata>
<g transform="translate(0.000000,260.000000) scale(0.100000,-0.100000)"
fill="#000000" stroke="none">
<path d="M290 1575 l0 -715 445 0 445 0 0 85 0 85 -350 0 -350 0 0 630 0 630
-95 0 -95 0 0 -715z"/>
<path d="M1685 1746 c-242 -48 -365 -180 -365 -389 0 -93 23 -155 79 -219 70
-81 161 -120 434 -189 248 -62 313 -93 356 -170 19 -34 23 -52 19 -104 -9
-144 -134 -225 -347 -225 -218 0 -356 85 -404 248 l-22 75 -84 -6 c-46 -4 -86
-8 -88 -11 -11 -10 27 -157 54 -212 59 -121 192 -216 348 -249 95 -20 300 -20
379 1 150 39 252 118 313 241 35 71 38 82 38 168 0 83 -3 97 -33 158 -66 133
-169 192 -462 266 -286 72 -348 100 -385 172 -19 35 -19 100 -2 142 20 47 86
102 148 123 63 21 239 25 304 6 101 -29 184 -118 200 -214 6 -36 9 -38 43 -38
21 0 61 3 91 7 l53 6 -5 54 c-13 121 -104 249 -218 305 -119 58 -307 81 -444
54z"/>
</g>
</svg>
